<svg width="75" height="72" viewBox="0 0 75 72" fill="none" xmlns="http://www.w3.org/2000/svg">
<circle cx="50.5294" cy="41.5294" r="23.5294" fill="#8951E5"/>
<path fill-rule="evenodd" clip-rule="evenodd" d="M36 4.5H9C7.80653 4.5 6.66193 4.97411 5.81802 5.81802C4.97411 6.66193 4.5 7.80653 4.5 9V63C4.5 64.1935 4.97411 65.3381 5.81802 66.182C6.66193 67.0259 7.80653 67.5 9 67.5H36C37.1935 67.5 38.3381 67.0259 39.182 66.182C40.0259 65.3381 40.5 64.1935 40.5 63V9C40.5 7.80653 40.0259 6.66193 39.182 5.81802C38.3381 4.97411 37.1935 4.5 36 4.5ZM9 0C6.61305 0 4.32387 0.948212 2.63604 2.63604C0.948211 4.32387 0 6.61305 0 9V63C0 65.3869 0.948211 67.6761 2.63604 69.364C4.32387 71.0518 6.61305 72 9 72H36C38.3869 72 40.6761 71.0518 42.364 69.364C44.0518 67.6761 45 65.3869 45 63V9C45 6.61305 44.0518 4.32387 42.364 2.63604C40.6761 0.948212 38.3869 0 36 0L9 0Z" fill="#181441"/>
<path fill-rule="evenodd" clip-rule="evenodd" d="M22.5 63C23.6935 63 24.8381 62.5259 25.682 61.682C26.5259 60.8381 27 59.6935 27 58.5C27 57.3065 26.5259 56.1619 25.682 55.318C24.8381 54.4741 23.6935 54 22.5 54C21.3065 54 20.1619 54.4741 19.318 55.318C18.4741 56.1619 18 57.3065 18 58.5C18 59.6935 18.4741 60.8381 19.318 61.682C20.1619 62.5259 21.3065 63 22.5 63Z" fill="#181441"/>
</svg>
