<svg width="70" height="87" viewBox="0 0 70 87" fill="none" xmlns="http://www.w3.org/2000/svg">
<circle cx="30.5294" cy="62.5294" r="23.5294" fill="#F6B433"/>
<path d="M60.5779 39.4959C61.3867 36.7138 61.7969 33.8301 61.7969 30.8984C61.7969 13.8935 47.9019 0 30.8984 0C13.8935 0 0 13.895 0 30.8984C0 47.8605 13.861 61.6602 30.8984 61.6602C35.1358 61.6602 39.3228 60.8053 43.1393 59.1798C45.4088 64.0929 49.6251 67.9952 54.9961 69.7854L55.6445 70.0015L56.293 69.7854C64.4916 67.0526 70 59.3991 70 50.7406V41.1523H67.9492C65.1438 41.1523 62.5498 40.3517 60.5779 39.4959ZM41.2891 41.1523V50.7406C41.2891 52.2971 41.468 53.821 41.8076 55.2898C38.4251 56.7774 34.6873 57.5586 30.8984 57.5586C16.1226 57.5586 4.10156 45.5989 4.10156 30.8984C4.10156 16.1226 16.1226 4.10156 30.8984 4.10156C45.6743 4.10156 57.6953 16.1226 57.6953 30.8984C57.6953 33.1306 57.4206 35.3296 56.8799 37.4644C56.8761 37.4615 55.6466 36.5519 55.6466 36.5519L54.4236 37.454C54.3733 37.4909 49.3395 41.1523 43.3398 41.1523H41.2891ZM65.8984 50.7406C65.8984 57.4 61.806 63.3116 55.6445 65.6626C49.483 63.3116 45.3906 57.4 45.3906 50.7406V45.1452C49.9873 44.6631 53.7852 42.6917 55.6445 41.5564C57.5039 42.6917 61.3018 44.6631 65.8984 45.1452V50.7406Z" fill="black"/>
<path d="M54.7805 46.6622C52.2007 47.8615 50.4355 48.2856 49.4927 48.6021V50.7408C49.4927 54.5805 51.3477 58.195 54.4549 60.4091L55.645 61.2572L56.8352 60.4091C59.9424 58.195 61.7974 54.5807 61.7974 50.7408V48.6021C60.8864 48.2963 59.129 47.8798 56.5095 46.6622L55.645 46.2603L54.7805 46.6622ZM57.6519 51.5693C57.4743 53.2382 56.765 54.7997 55.645 56.0179C54.5252 54.7997 53.8157 53.2381 53.6381 51.5693C54.3085 51.3258 54.9788 51.0589 55.645 50.7699C56.3114 51.0589 56.9816 51.3258 57.6519 51.5693Z" fill="black"/>
<path d="M28.8481 8.20288H32.9498V12.3045H28.8481V8.20288Z" fill="black"/>
<path d="M28.8481 49.3552H32.9498V53.4569H28.8481V49.3552Z" fill="black"/>
<path d="M8.20361 28.8474H12.3053V32.9491H8.20361V28.8474Z" fill="black"/>
<path d="M49.4927 28.8474H53.5943V32.9491H49.4927V28.8474Z" fill="black"/>
<path d="M32.9502 16.4058H28.8486V30.0485L21.2461 37.6509L24.1463 40.5512L31.7488 32.9487H41.29V28.8472H32.9502V16.4058Z" fill="black"/>
</svg>
