<svg width="84" height="80" viewBox="0 0 84 80" fill="none" xmlns="http://www.w3.org/2000/svg">
<circle cx="60.0001" cy="56.4706" r="23.5294" fill="#F9AD1B"/>
<g clip-path="url(#clip0_31_85)">
<path d="M64.2393 19.9174L59.1366 15.6438L57.9749 9.0898C57.5886 6.91148 55.704 5.33183 53.4923 5.33183C53.4909 5.33183 53.4892 5.33183 53.4879 5.33183L46.8319 5.33775L41.7294 1.06456C40.0324 -0.356799 37.5709 -0.354675 35.8764 1.06987L30.7816 5.35278L24.1256 5.359C21.9121 5.36112 20.0279 6.94502 19.6456 9.12516L18.4957 15.6811L13.4009 19.9641C11.7066 21.3885 11.2813 23.8129 12.3899 25.7288L15.7231 31.4901L14.5734 38.0458C14.1908 40.2261 15.4236 42.3566 17.5045 43.1119L23.1166 45.1488L23.1383 73.0922C23.1383 74.7925 24.0742 76.3383 25.5807 77.1264C26.2469 77.4748 26.9711 77.6472 27.6926 77.6472C28.6026 77.6472 29.5082 77.373 30.2873 76.8323L38.7695 70.9439L47.2515 76.8323C48.6482 77.8017 50.4516 77.9144 51.9581 77.1264C53.4646 76.3383 54.4005 74.7925 54.4005 73.0922V45.1817L60.1784 43.0729C62.2576 42.3138 63.4864 40.181 63.1 38.0014L61.9382 31.4476L65.2609 25.6802C66.366 23.7622 65.9362 21.3386 64.2393 19.9174ZM40.0676 66.3029C39.2871 65.7611 38.252 65.7611 37.4715 66.3029L27.6913 73.0911C27.6913 73.0907 27.6913 73.0904 27.6913 73.0904L27.675 51.9346C28.5412 52.8848 29.764 53.4182 31.0321 53.4182C31.5533 53.4182 32.082 53.3282 32.5965 53.1406L38.8489 50.8585L45.1055 53.1291C46.7888 53.7395 48.6233 53.3038 49.8479 52.0997L49.8473 73.0916L40.0676 66.3029ZM57.9934 29.1749C57.46 30.1009 57.2689 31.1901 57.4556 32.2422L58.6174 38.796L52.3644 41.0783C51.5807 41.3645 50.8955 41.8634 50.3777 42.5077C50.353 42.5373 50.3304 42.5689 50.3072 42.5997C50.1897 42.7537 50.0785 42.9129 49.981 43.0821L46.6598 48.8498C46.6598 48.8498 46.6594 48.8497 46.6583 48.8492L40.4018 46.5788C39.3973 46.2143 38.2915 46.2152 37.2876 46.5815L31.0352 48.8638L27.702 43.1026C27.5229 42.793 27.306 42.5103 27.0628 42.2537C27.0408 42.23 27.0201 42.2051 26.9971 42.1824C26.5255 41.706 25.9521 41.3345 25.3144 41.1029L19.0577 38.8322L20.2076 32.2762C20.392 31.2236 20.1989 30.1348 19.6638 29.21L16.3306 23.4488L21.4254 19.1657C22.2436 18.4781 22.7956 17.5196 22.98 16.4673L24.1299 9.91157L30.7855 9.90535C31.8542 9.90444 32.8933 9.5252 33.7111 8.83758L38.8059 4.55468L43.9085 8.82802C44.7266 9.51336 45.7648 9.89063 46.8322 9.89063H46.836L53.492 9.88456L54.6537 16.4385C54.8402 17.4906 55.3941 18.4476 56.2133 19.1339L61.316 23.4075L57.9934 29.1749Z" fill="#181441"/>
<path d="M38.823 14.1577C31.5849 14.1577 25.6963 20.0464 25.6963 27.2844C25.6963 34.5225 31.5849 40.4112 38.823 40.4112C46.0611 40.4112 51.9499 34.5225 51.9499 27.2844C51.9499 20.0464 46.0611 14.1577 38.823 14.1577ZM38.823 35.8584C34.0953 35.8584 30.249 32.0121 30.249 27.2844C30.249 22.5567 34.0953 18.7104 38.823 18.7104C43.5507 18.7104 47.3972 22.5567 47.3972 27.2844C47.3972 32.0121 43.5507 35.8584 38.823 35.8584Z" fill="#181441"/>
<path d="M389 -359H-347C-364.7 -359 -379 -344.7 -379 -327V409C-379 426.7 -364.7 441 -347 441H389C406.7 441 421 426.7 421 409V-327C421 -344.7 406.7 -359 389 -359ZM236.3 -69.3C236.6 -64.6 236.6 -59.7 236.6 -54.9C236.6 91.9 124.8 261 -79.5 261C-142.5 261 -200.9 242.7 -250.1 211.2C-241.1 212.2 -232.5 212.6 -223.3 212.6C-171.3 212.6 -123.5 195 -85.4 165.2C-134.2 164.2 -175.2 132.2 -189.2 88.2C-172.1 90.7 -156.7 90.7 -139.1 86.2C-164.227 81.095 -186.812 67.4483 -203.018 47.5783C-219.224 27.7083 -228.051 2.84067 -228 -22.8V-24.2C-213.3 -15.9 -196 -10.8 -177.9 -10.1C-193.116 -20.2405 -205.594 -33.9789 -214.229 -50.097C-222.864 -66.2151 -227.388 -84.2148 -227.4 -102.5C-227.4 -123.2 -222 -142.1 -212.3 -158.5C-184.41 -124.166 -149.607 -96.0858 -110.154 -76.0834C-70.7001 -56.0811 -27.4792 -44.6046 16.7 -42.4C1 -117.9 57.4 -179 125.2 -179C157.2 -179 186 -165.6 206.3 -144C231.4 -148.7 255.4 -158.1 276.8 -170.7C268.5 -145 251.1 -123.3 228 -109.6C250.4 -112 272 -118.2 292 -126.9C276.9 -104.7 258 -85 236.3 -69.3Z" fill="black"/>
</g>
<defs>
<clipPath id="clip0_31_85">
<rect width="77.6471" height="77.6471" fill="white"/>
</clipPath>
</defs>
</svg>
