<svg width="51" height="83" viewBox="0 0 51 83" fill="none" xmlns="http://www.w3.org/2000/svg">
<circle cx="26.5294" cy="23.5294" r="23.5294" fill="#8951E5"/>
<path d="M47.5 28.0001C40.7869 28.0001 29.3731 26.3376 26.7678 23.7323C26.5357 23.5001 26.2601 23.316 25.9567 23.1903C25.6534 23.0647 25.3283 23 25 23C24.6717 23 24.3466 23.0647 24.0433 23.1903C23.7399 23.316 23.4643 23.5001 23.2322 23.7323C20.6269 26.3376 9.21313 28.0001 2.5 28.0001C1.83696 28.0001 1.20107 28.2635 0.732233 28.7323C0.263392 29.2012 0 29.837 0 30.5001V58.0001C0 61.3676 3.82813 64.2751 10.5938 69.1251C15.3356 72.5213 22.5 77.6563 22.5 80.5001C22.5 81.1631 22.7634 81.799 23.2322 82.2679C23.7011 82.7367 24.337 83.0001 25 83.0001C25.663 83.0001 26.2989 82.7367 26.7678 82.2679C27.2366 81.799 27.5 81.1631 27.5 80.5001C27.5 77.6563 34.6644 72.5213 39.4062 69.1251C46.1719 64.2751 50 61.3676 50 58.0001V30.5001C50 29.837 49.7366 29.2012 49.2678 28.7323C48.7989 28.2635 48.163 28.0001 47.5 28.0001ZM42.5 56.1104C42.4999 56.4573 42.4276 56.8003 42.2877 57.1178C42.1478 57.4352 41.9434 57.72 41.6875 57.9542C40.1431 59.3676 37.1925 61.4823 35.0381 63.026C32.1462 65.0985 29.1572 67.2401 26.6512 69.4448C26.1949 69.8463 25.6078 70.0677 25 70.0677C24.3922 70.0677 23.8051 69.8463 23.3488 69.4448C20.8428 67.2401 17.8538 65.0985 14.9634 63.0273C12.8072 61.4823 9.85687 59.3676 8.3125 57.9542C8.05657 57.72 7.85216 57.4352 7.71228 57.1178C7.5724 56.8003 7.50011 56.4573 7.5 56.1104V37.5523C7.50002 36.9345 7.72878 36.3386 8.14218 35.8795C8.55558 35.4204 9.12433 35.1306 9.73875 35.066C11.5734 34.8732 13.3666 34.6285 15.0684 34.3338C18.7622 33.6967 21.6903 32.9045 24.0197 31.9117C24.3296 31.7795 24.6631 31.7114 25 31.7114C25.3369 31.7114 25.6704 31.7795 25.9803 31.9117C28.3097 32.9045 31.2378 33.6967 34.9319 34.3338C36.6334 34.627 38.4266 34.8732 40.2612 35.066C40.8757 35.1306 41.4444 35.4204 41.8578 35.8795C42.2712 36.3386 42.5 36.9345 42.5 37.5523V56.1104Z" fill="black"/>
<path d="M21.9795 52.1484L16.3858 48.42L13.6133 52.58L21.1133 57.58C21.6337 57.927 22.2652 58.0664 22.8833 57.9706C23.5014 57.8748 24.0611 57.5508 24.452 57.0625L34.452 44.5625L30.5477 41.4375L21.9795 52.1484Z" fill="black"/>
</svg>
