<svg width="20" height="32" viewBox="0 0 20 32" fill="none" xmlns="http://www.w3.org/2000/svg">
<path fill-rule="evenodd" clip-rule="evenodd" d="M16 2H4C3.46957 2 2.96086 2.21071 2.58579 2.58579C2.21071 2.96086 2 3.46957 2 4V28C2 28.5304 2.21071 29.0391 2.58579 29.4142C2.96086 29.7893 3.46957 30 4 30H16C16.5304 30 17.0391 29.7893 17.4142 29.4142C17.7893 29.0391 18 28.5304 18 28V4C18 3.46957 17.7893 2.96086 17.4142 2.58579C17.0391 2.21071 16.5304 2 16 2ZM4 0C2.93913 0 1.92172 0.421427 1.17157 1.17157C0.421427 1.92172 0 2.93913 0 4V28C0 29.0609 0.421427 30.0783 1.17157 30.8284C1.92172 31.5786 2.93913 32 4 32H16C17.0609 32 18.0783 31.5786 18.8284 30.8284C19.5786 30.0783 20 29.0609 20 28V4C20 2.93913 19.5786 1.92172 18.8284 1.17157C18.0783 0.421427 17.0609 0 16 0L4 0Z" fill="#181441"/>
<path fill-rule="evenodd" clip-rule="evenodd" d="M10 28C10.5304 28 11.0391 27.7893 11.4142 27.4142C11.7893 27.0391 12 26.5304 12 26C12 25.4696 11.7893 24.9609 11.4142 24.5858C11.0391 24.2107 10.5304 24 10 24C9.46957 24 8.96086 24.2107 8.58579 24.5858C8.21071 24.9609 8 25.4696 8 26C8 26.5304 8.21071 27.0391 8.58579 27.4142C8.96086 27.7893 9.46957 28 10 28Z" fill="#181441"/>
</svg>
