<svg width="32" height="30" viewBox="0 0 32 30" fill="none" xmlns="http://www.w3.org/2000/svg">
<path d="M29.0886 19.0599L30.3729 14.2441V11.3898C29.8213 5.01742 24.4113 0 17.8983 0H15.7288V11.3898H7.87512L6.66536 6.04963C6.55875 5.56606 6.29069 5.1332 5.90529 4.82228C5.51989 4.51136 5.04012 4.34091 4.54495 4.33898H0V6.50847H4.54495L7.28902 18.6217C6.30982 18.8811 5.42284 19.4096 4.72855 20.1472C4.03426 20.8848 3.56042 21.8021 3.3607 22.7952C3.16098 23.7883 3.24336 24.8175 3.59852 25.7662C3.95367 26.7148 4.56741 27.5451 5.37019 28.1629C6.17298 28.7807 7.13273 29.1613 8.14072 29.2616C9.14872 29.362 10.1647 29.178 11.0735 28.7306C11.9823 28.2832 12.7477 27.5902 13.2829 26.7302C13.8181 25.8701 14.1017 24.8774 14.1017 23.8644C14.1017 23.6814 14.0927 23.5006 14.0746 23.322H21.1797C21.1618 23.5005 21.1528 23.6813 21.1525 23.8644C21.1521 24.8262 21.4075 25.7708 21.8925 26.6014C22.3774 27.432 23.0746 28.1187 23.9124 28.5911C24.7502 29.0635 25.6985 29.3047 26.6602 29.2898C27.6219 29.2749 28.5624 29.0045 29.3851 28.5064C30.2079 28.0083 30.8835 27.3004 31.3425 26.4552C31.8015 25.6099 32.0275 24.6579 31.9973 23.6965C31.9672 22.7352 31.6819 21.7992 31.1707 20.9844C30.6596 20.1696 29.941 19.5055 29.0886 19.0599ZM17.8983 2.16949C23.2143 2.16949 27.6031 6.21546 28.1467 11.3898H17.8983V2.16949ZM8.67797 27.1186C8.03434 27.1186 7.40517 26.9278 6.87001 26.5702C6.33485 26.2126 5.91775 25.7044 5.67144 25.1097C5.42514 24.5151 5.36069 23.8608 5.48626 23.2295C5.61182 22.5983 5.92176 22.0184 6.37687 21.5633C6.83199 21.1082 7.41184 20.7983 8.0431 20.6727C8.67436 20.5471 9.32867 20.6116 9.92331 20.8579C10.5179 21.1042 11.0262 21.5213 11.3838 22.0564C11.7413 22.5916 11.9322 23.2208 11.9322 23.8644C11.9312 24.7272 11.588 25.5543 10.978 26.1644C10.3679 26.7745 9.54074 27.1177 8.67797 27.1186ZM21.8822 21.1525H13.372C12.9643 20.4477 12.4034 19.8436 11.7308 19.3847C11.0582 18.9257 10.2911 18.6238 9.48617 18.5012L8.36664 13.5593H28.2034V13.9593L27.0034 18.4588C26.8613 18.4472 26.7188 18.441 26.5763 18.4405C25.6247 18.4412 24.6901 18.6922 23.8662 19.1682C23.0423 19.6442 22.3581 20.3286 21.8822 21.1525ZM26.5763 27.1186C25.9326 27.1186 25.3035 26.9278 24.7683 26.5702C24.2332 26.2126 23.8161 25.7044 23.5697 25.1097C23.3234 24.5151 23.259 23.8608 23.3846 23.2295C23.5101 22.5983 23.8201 22.0184 24.2752 21.5633C24.7303 21.1082 25.3101 20.7983 25.9414 20.6727C26.5727 20.5471 27.227 20.6116 27.8216 20.8579C28.4162 21.1042 28.9245 21.5213 29.2821 22.0564C29.6397 22.5916 29.8305 23.2208 29.8305 23.8644C29.8295 24.7272 29.4863 25.5543 28.8763 26.1644C28.2662 26.7745 27.439 27.1177 26.5763 27.1186Z" fill="#181441"/>
</svg>
