<svg width="35" height="35" viewBox="0 0 35 35" fill="none" xmlns="http://www.w3.org/2000/svg">
<path d="M34.4355 14.6774H28.7903V12.9839C28.7903 12.6717 28.538 12.4194 28.2258 12.4194C27.3621 12.4194 26.5972 12.8179 26.079 13.431C25.9406 13.3463 25.7956 13.2723 25.6398 13.2204L24.4819 12.8337C24.0202 12.6802 23.7097 12.25 23.7097 11.7634V11.2903H29.9194C30.542 11.2903 31.0484 10.784 31.0484 10.1613V1.12903C31.0484 0.506371 30.542 0 29.9194 0H14.1129C13.4902 0 12.9839 0.506371 12.9839 1.12903V10.1613C12.9839 10.784 13.4902 11.2903 14.1129 11.2903H20.3226V11.7634C20.3226 12.25 20.0121 12.6802 19.5503 12.8343L18.3925 13.2204C17.706 13.449 17.2019 14.004 17.0168 14.6774H10.1613V5.08065C10.1613 4.76847 9.90895 4.51613 9.59677 4.51613H2.82258C2.5104 4.51613 2.25806 4.76847 2.25806 5.08065V14.6774H0.564516C0.252339 14.6774 0 14.9298 0 15.2419V18.629V34.4355C0 34.7477 0.252339 35 0.564516 35H2.82258C3.13476 35 3.3871 34.7477 3.3871 34.4355V30.4839H9.03226V34.4355C9.03226 34.7477 9.2846 35 9.59677 35H11.8548C12.167 35 12.4194 34.7477 12.4194 34.4355V19.1935H25.4032V23.1452H18.0645C16.5081 23.1452 15.2419 24.4114 15.2419 25.9677V27.0968C15.2419 27.409 15.4943 27.6613 15.8065 27.6613H20.3226V28.0892C20.3226 29.4079 19.8315 30.6481 18.9446 31.6129H18.0645C17.1308 31.6129 16.371 32.3727 16.371 33.3064C16.371 34.2402 17.1308 35 18.0645 35H25.9677C26.9015 35 27.6613 34.2402 27.6613 33.3064C27.6613 32.3727 26.9015 31.6129 25.9677 31.6129H25.0877C24.2008 30.6481 23.7097 29.4079 23.7097 28.0892V27.6613H27.0968C28.0305 27.6613 28.7903 26.9015 28.7903 25.9677V23.7097V19.1935H31.6129V34.4355C31.6129 34.7477 31.8652 35 32.1774 35H34.4355C34.7477 35 35 34.7477 35 34.4355V18.629V15.2419C35 14.9298 34.7477 14.6774 34.4355 14.6774ZM29.9194 1.12903L29.9199 7.90323H14.1129V1.12903H29.9194ZM14.1129 9.03226H29.9205V10.1613H14.1129V9.03226ZM18.7498 14.2907L19.9077 13.9052C20.8306 13.5975 21.4516 12.7366 21.4516 11.7634V11.2903H22.5806V11.7634C22.5806 12.7372 23.2016 13.5975 24.1246 13.9052L25.2824 14.2913C25.3744 14.3223 25.4608 14.3658 25.5393 14.4211C25.5127 14.5069 25.4783 14.5888 25.4602 14.678H18.2423C18.3631 14.5013 18.537 14.3619 18.7498 14.2907ZM9.03226 11.2903H3.3871V9.03226H9.03226V11.2903ZM9.03226 5.64516V7.90323H3.3871V5.64516H9.03226ZM3.3871 12.4194H9.03226V14.6774H3.3871V12.4194ZM2.25806 33.871H1.12903V19.1935H2.25806V33.871ZM9.03226 19.1935V23.7097H3.3871V19.1935H9.03226ZM3.3871 29.3548V24.8387H9.03226V29.3548H3.3871ZM11.2903 33.871H10.1613V19.1935H11.2903V33.871ZM11.8548 18.0645H9.59677H2.82258H1.12903V15.8065H25.4032V18.0645H11.8548ZM26.5323 15.2419C26.5323 14.5058 27.0042 13.8781 27.6613 13.6449V23.1452H26.5323V15.2419ZM26.5323 33.3064C26.5323 33.6181 26.2794 33.871 25.9677 33.871H18.0645C17.7529 33.871 17.5 33.6181 17.5 33.3064C17.5 32.9948 17.7529 32.7419 18.0645 32.7419H25.9677C26.2794 32.7419 26.5323 32.9948 26.5323 33.3064ZM23.647 31.6129H20.3852C21.0785 30.5787 21.4516 29.3627 21.4516 28.0892V27.6613H22.5806V28.0892C22.5806 29.3627 22.9538 30.5787 23.647 31.6129ZM27.6613 25.9677C27.6613 26.2794 27.4084 26.5323 27.0968 26.5323H16.371V25.9677C16.371 25.034 17.1308 24.2742 18.0645 24.2742H27.6613V25.9677ZM28.7903 15.8065H33.871V18.0645H32.1774H28.7903V15.8065ZM33.871 33.871H32.7419V19.1935H33.871V33.871Z" fill="#181441"/>
</svg>
