<svg width="24" height="11" viewBox="0 0 24 11" fill="none" xmlns="http://www.w3.org/2000/svg">
<path d="M23.5853 2.9228C23.9558 2.73754 24.1059 2.28702 23.9207 1.91656C23.7355 1.54609 23.285 1.396 22.9145 1.58111L22.5887 1.74401C22.0954 1.21721 21.4844 0.785625 20.7744 0.494619C19.4918 -0.0310952 17.7996 -0.145473 16.2477 0.188659C14.8203 0.495978 13.7202 1.13265 13.0628 2.01518C12.7186 1.92345 12.3632 1.87699 12 1.87699C11.6368 1.87699 11.2814 1.92345 10.9372 2.01518C10.2798 1.13265 9.17971 0.495978 7.75233 0.188659C6.20046 -0.145473 4.50824 -0.0310952 3.22562 0.494619C2.51566 0.785625 1.90465 1.21721 1.41129 1.74401L1.08556 1.58111C0.715112 1.39581 0.264555 1.54609 0.0793535 1.91656C-0.105895 2.28702 0.0442445 2.73754 0.414741 2.9228L0.547724 2.98927C-0.0942697 4.28225 -0.199737 5.83459 0.388256 7.27266C0.913532 8.55734 1.90713 9.56039 3.1861 10.097C3.83236 10.3682 4.51232 10.5038 5.19256 10.5038C5.85865 10.5038 6.52502 10.3737 7.16008 10.1134C8.44251 9.58772 9.72894 8.48131 10.6011 7.15373C11.4532 5.85676 11.782 4.55403 11.5585 3.41415C11.7032 3.38973 11.8505 3.37698 12.0001 3.37698C12.1497 3.37698 12.297 3.38977 12.4417 3.41415C12.2182 4.55399 12.547 5.85672 13.3991 7.15373C14.2713 8.48131 15.5577 9.58772 16.8401 10.1134C17.4752 10.3737 18.1415 10.5038 18.8076 10.5038C19.4878 10.5038 20.1679 10.3681 20.8141 10.097C22.093 9.56039 23.0866 8.55734 23.6119 7.27266C24.1999 5.83459 24.0944 4.28225 23.4525 2.98927L23.5853 2.9228ZM4.80482 3.09389C4.02183 3.08916 3.38044 3.72316 3.37505 4.50716C3.37219 4.92135 3.03409 5.25483 2.61995 5.25197C2.51955 5.25127 2.42392 5.23092 2.33664 5.19455C2.06383 5.08078 1.87296 4.81068 1.87512 4.49685C1.88618 2.88642 3.20448 1.5842 4.81382 1.59391C5.22805 1.59644 5.5618 1.93418 5.55931 2.34842C5.55683 2.76262 5.219 3.09638 4.80482 3.09389ZM17.5634 2.76942C17.1078 2.74739 16.5095 2.92064 16.0389 3.21085C15.5955 3.48432 15.3224 3.82319 15.3084 4.11729C15.2935 4.4308 15.0881 4.69012 14.8096 4.78884C14.7205 4.82043 14.6239 4.83557 14.5236 4.83079C14.1098 4.8111 13.7904 4.45972 13.8102 4.04594C13.8489 3.23349 14.3608 2.48352 15.2516 1.93409C15.9845 1.48216 16.8758 1.23432 17.6361 1.27112C18.0497 1.29118 18.3689 1.6428 18.3488 2.05657C18.3288 2.4703 17.9771 2.78943 17.5634 2.76942Z" fill="#181441"/>
</svg>
