<svg width="21" height="23" viewBox="0 0 21 23" fill="none" xmlns="http://www.w3.org/2000/svg">
<path d="M10.0459 22.8446C4.50672 22.8446 0 18.3379 0 12.7982C0 9.25296 1.81248 6.0384 4.84896 4.2C5.00355 4.10636 5.17507 4.04409 5.35373 4.01674C5.53239 3.98939 5.71469 3.9975 5.89021 4.0406C6.06574 4.0837 6.23105 4.16095 6.37672 4.26794C6.52239 4.37493 6.64556 4.50957 6.7392 4.66416C6.83284 4.81875 6.89511 4.99027 6.92246 5.16893C6.94981 5.34759 6.9417 5.52989 6.8986 5.70541C6.8555 5.88094 6.77825 6.04625 6.67126 6.19192C6.56427 6.33759 6.42963 6.46076 6.27504 6.5544C4.06944 7.88976 2.7528 10.2245 2.7528 12.7982C2.7528 16.8202 6.02448 20.0918 10.0464 20.0918C14.0683 20.0918 17.3395 16.8202 17.3395 12.7982C17.3395 10.1822 15.9264 7.75104 13.6498 6.45504C13.4894 6.36738 13.3482 6.24867 13.2342 6.10584C13.1202 5.96301 13.0359 5.79891 12.986 5.62312C12.9361 5.44733 12.9218 5.26337 12.9438 5.08197C12.9658 4.90057 13.0236 4.72537 13.1141 4.56658C13.2045 4.4078 13.3256 4.26861 13.4704 4.15714C13.6152 4.04567 13.7807 3.96415 13.9574 3.91734C14.134 3.87052 14.3182 3.85935 14.4992 3.88448C14.6801 3.9096 14.8543 3.97052 15.0115 4.06368C16.5528 4.94311 17.8343 6.21408 18.7265 7.74797C19.6187 9.28186 20.0899 11.0242 20.0923 12.7987C20.0918 18.3379 15.5861 22.8446 10.0459 22.8446ZM9.94128 12.661C9.18144 12.661 8.26128 12.0446 8.26128 11.2848V1.37616C8.26128 0.61632 9.18144 0 9.94128 0C10.7011 0 11.6213 0.61632 11.6213 1.37616V11.2848C11.6213 12.0446 10.7011 12.661 9.94128 12.661Z" fill="#181441"/>
</svg>
